# xmcd
#
# Track frame offsets: 
#        150
#        24358
#        47617
#        70753
#        88967
#        111963
#        122852
#        147004
#        168399
#        188616
#        209647
#        230197
#        250096
#        268455
#        286545
#        304990
#        331660
#
# Disc length: 4704 seconds
#
# Revision: 0
# Processed by: cddbd v1.5.1PL0 Copyright (c) Steve Scherf et al.
# Submitted via: ExactAudioCopy v0.95a5
#
DISCID=fa125e11
DTITLE=刘亮鹭 - 往事如昔2《盛夏的果实》
DYEAR=2004
DGENRE=Pop
TTITLE0=盛夏的果实
TTITLE1=情网
TTITLE2=下雨天（粤语版）
TTITLE3=最真的梦
TTITLE4=我曾用心爱着你
TTITLE5=兰花草
TTITLE6=爱情的故事
TTITLE7=读你
TTITLE8=独角戏
TTITLE9=爱上一个不回家的人
TTITLE10=别问我是谁
TTITLE11=玻璃心
TTITLE12=往事如昔
TTITLE13=干杯朋友
TTITLE14=滚滚红尘
TTITLE15=城里的月光
TTITLE16=橄榄树
EXTD=
EXTT0=
EXTT1=
EXTT2=
EXTT3=
EXTT4=
EXTT5=
EXTT6=
EXTT7=
EXTT8=
EXTT9=
EXTT10=
EXTT11=
EXTT12=
EXTT13=
EXTT14=
EXTT15=
EXTT16=
PLAYORDER=
